<svg width="1138" height="1138" viewBox="0 0 1138 1138" fill="none" xmlns="http://www.w3.org/2000/svg">
<rect width="1138" height="1138" rx="569" fill="white"/>
<path d="M874.084 716.007C867.141 670.633 848.505 631.269 820.22 602.121C780.032 560.744 721.629 539.77 646.663 539.77C583.541 539.77 536.349 523.093 506.291 490.189C478.307 459.57 470.371 420.506 468.448 395.926H641.253C649.883 395.928 658.4 393.955 666.15 390.16C673.901 386.364 680.68 380.846 685.969 374.028C691.257 367.21 694.915 359.272 696.662 350.823C698.41 342.374 698.2 333.637 696.049 325.281C692.044 309.716 685.548 294.901 676.812 281.41C641.704 227.682 579.122 204.935 517.082 223.235C460.091 240.153 421.196 286.067 413.862 342.649H333.336C323.021 342.636 312.83 344.894 303.487 349.262C294.144 353.631 285.877 360.002 279.275 367.925C272.673 375.847 267.897 385.126 265.287 395.101C262.676 405.077 262.296 415.505 264.171 425.644C272.317 469.365 291.945 507.317 320.952 535.173C361.53 574.236 419.392 593.858 493.005 593.858C554.925 593.858 601.215 610.445 630.853 643.138C659.558 674.96 667.103 716.187 668.816 741.999H494.418C485.787 741.997 477.271 743.97 469.52 747.765C461.77 751.561 454.991 757.079 449.702 763.897C444.414 770.715 440.756 778.653 439.008 787.102C437.261 795.551 437.471 804.288 439.622 812.644C443.621 828.21 450.118 843.026 458.859 856.515C471.366 876.281 488.675 892.56 509.173 903.836C529.671 915.111 552.69 921.016 576.086 921C590.492 920.955 604.816 918.84 618.619 914.72C675.219 897.922 713.934 852.669 721.659 796.507H804.62C814.784 796.511 824.828 794.316 834.063 790.073C843.299 785.83 851.506 779.64 858.123 771.928C864.659 764.308 869.469 755.365 872.224 745.713C874.979 736.061 875.613 725.927 874.084 716.007ZM532.472 275.1C563.131 266.085 605.243 270.622 631.454 310.918C637.004 319.502 641.125 328.93 643.657 338.833C643.768 339.181 643.788 339.552 643.714 339.91C643.64 340.268 643.476 340.6 643.237 340.877C643.008 341.185 642.709 341.434 642.363 341.601C642.018 341.769 641.637 341.85 641.253 341.838H468.838C476.924 304.517 506.441 282.762 532.472 275.1ZM317.345 415.758C316.926 413.425 317.025 411.027 317.637 408.737C318.248 406.446 319.356 404.317 320.882 402.502C322.408 400.687 324.314 399.23 326.467 398.234C328.619 397.237 330.964 396.727 333.336 396.737H414.222C416.387 429.31 426.456 482.677 465.863 526.128C470.135 530.809 474.65 535.262 479.389 539.47C364.055 534.752 327.504 470.207 317.345 415.758ZM603.139 863.006C572.57 872.02 530.488 867.303 504.157 826.947C498.584 818.374 494.461 808.943 491.953 799.032C491.845 798.688 491.827 798.323 491.901 797.97C491.974 797.618 492.137 797.29 492.374 797.018C492.597 796.702 492.895 796.446 493.241 796.273C493.587 796.1 493.971 796.016 494.358 796.027H665.69V796.447H666.802C658.446 833.588 628.959 855.193 603.139 863.006ZM816.974 736.8C815.441 738.601 813.533 740.045 811.383 741.031C809.234 742.017 806.894 742.522 804.529 742.51H723.071C721.388 708.675 711.89 652.573 671.431 607.47C667.259 602.804 662.845 598.361 658.206 594.158C726.137 596.622 804.98 622.374 820.52 724.3C820.877 726.516 820.745 728.784 820.132 730.943C819.519 733.102 818.441 735.102 816.974 736.8Z" fill="#1A1A1A"/>
</svg>
