<svg width="1113" height="407" viewBox="0 0 1113 407" fill="none" xmlns="http://www.w3.org/2000/svg">
<path d="M352.796 288.091C348.788 261.895 338.028 239.169 321.699 222.342C298.497 198.453 264.779 186.345 221.5 186.345C185.057 186.345 157.812 176.716 140.459 157.72C124.303 140.043 119.721 117.49 118.611 103.299H218.376C223.359 103.3 228.275 102.162 232.75 99.9703C237.225 97.779 241.138 94.5932 244.192 90.6569C247.245 86.7205 249.357 82.138 250.366 77.26C251.374 72.3821 251.253 67.338 250.011 62.5141C247.699 53.5281 243.949 44.975 238.905 37.1859C218.636 6.1676 182.506 -6.96488 146.689 3.60008C113.786 13.367 91.331 39.8749 87.0967 72.5413H40.6067C34.6518 72.5337 28.7683 73.8372 23.3742 76.3592C17.9801 78.8811 13.2077 82.5597 9.39612 87.1335C5.58454 91.7072 2.82729 97.064 1.32023 102.823C-0.186817 108.582 -0.40668 114.603 0.676265 120.457C5.37906 145.698 16.7109 167.609 33.457 183.69C56.8843 206.243 90.2898 217.571 132.788 217.571C168.537 217.571 195.261 227.147 212.372 246.022C228.944 264.393 233.3 288.195 234.289 303.097H133.604C128.621 303.096 123.705 304.235 119.23 306.426C114.755 308.617 110.842 311.803 107.788 315.739C104.735 319.676 102.623 324.258 101.615 329.136C100.606 334.014 100.727 339.058 101.969 343.882C104.278 352.869 108.028 361.423 113.075 369.21C120.296 380.622 130.289 390.02 142.123 396.53C153.957 403.04 167.246 406.449 180.754 406.439C189.07 406.413 197.34 405.192 205.309 402.814C237.985 393.116 260.337 366.99 264.797 334.566H312.692C318.56 334.568 324.359 333.301 329.691 330.852C335.023 328.402 339.761 324.828 343.582 320.376C347.355 315.976 350.132 310.814 351.722 305.241C353.313 299.669 353.679 293.818 352.796 288.091ZM155.574 33.5428C173.274 28.3384 197.586 30.958 212.719 54.2217C215.923 59.1779 218.303 64.6206 219.764 70.3381C219.828 70.539 219.839 70.753 219.797 70.9596C219.754 71.1662 219.659 71.3583 219.521 71.5177C219.39 71.6959 219.216 71.8395 219.017 71.9362C218.818 72.0329 218.598 72.0798 218.376 72.0729H118.836C123.504 50.5266 140.546 37.9666 155.574 33.5428ZM31.3746 114.749C31.1328 113.402 31.1904 112.018 31.5434 110.695C31.8963 109.373 32.5359 108.144 33.4169 107.096C34.2978 106.048 35.3986 105.207 36.6411 104.632C37.8836 104.056 39.2374 103.762 40.6067 103.768H87.305C88.5544 122.573 94.3678 153.383 117.118 178.469C119.585 181.171 122.191 183.742 124.927 186.171C58.342 183.447 37.2401 146.184 31.3746 114.749ZM196.372 372.958C178.723 378.162 154.428 375.438 139.227 352.14C136.009 347.191 133.629 341.746 132.181 336.024C132.119 335.825 132.108 335.614 132.151 335.411C132.193 335.207 132.287 335.018 132.424 334.861C132.553 334.679 132.725 334.531 132.925 334.431C133.125 334.331 133.346 334.282 133.569 334.289H232.484V334.532H233.126C228.302 355.974 211.278 368.447 196.372 372.958ZM319.825 300.096C318.94 301.135 317.838 301.969 316.597 302.538C315.356 303.108 314.006 303.399 312.64 303.392H265.612C264.64 283.858 259.157 251.469 235.799 225.43C233.39 222.736 230.842 220.171 228.163 217.745C267.382 219.167 312.901 234.034 321.872 292.879C322.078 294.158 322.002 295.467 321.648 296.714C321.294 297.961 320.672 299.115 319.825 300.096Z" fill="white"/>
<path d="M1112.9 248.156L1041.19 406.436H1005.45L1036.78 337.739L995.004 248.156H1030.98L1053.49 301.07L1077.63 248.156H1112.9Z" fill="white"/>
<path d="M932.211 248.156V278.791C943.583 254.887 954.723 246.067 966.791 246.067C974.682 246.067 981.18 250.013 989.071 255.815L979.788 285.521C976.307 283.201 968.648 277.631 960.061 277.631C947.528 277.631 941.03 288.074 934.996 301.071C934.532 302.231 932.675 308.033 932.211 308.962V355.146H898.559V248.156H932.211Z" fill="white"/>
<path d="M886.371 301.999C886.371 343.774 851.095 357.235 826.494 357.235C793.771 357.235 765.921 337.044 765.921 302.231C765.921 268.811 793.074 246.067 826.726 246.067C851.095 246.067 886.371 259.76 886.371 301.999ZM850.399 299.911C850.399 292.484 850.399 266.723 825.566 266.723C802.126 266.723 802.126 293.18 802.126 302.928C802.126 309.426 802.125 336.347 826.494 336.347C850.399 336.347 850.399 308.498 850.399 299.911Z" fill="white"/>
<path d="M753.067 321.494V343.078C733.34 357.003 711.988 357.235 704.33 357.235C656.985 357.235 643.292 324.743 643.292 301.767C643.292 267.419 669.981 246.067 699.92 246.067C722.2 246.067 755.62 259.296 754.924 307.105H678.104C679.497 326.6 692.726 336.347 713.613 336.347C732.876 336.347 742.623 329.153 753.067 321.494ZM678.801 289.467H725.217C724.289 279.951 718.023 266.491 702.009 266.491C685.531 266.491 679.497 280.184 678.801 289.467Z" fill="white"/>
<path d="M557.513 196.868V263.94C570.51 247.926 583.042 246.069 591.629 246.069C599.752 246.069 613.213 247.926 622.728 261.851C628.53 270.438 630.155 278.329 630.155 290.165V355.148H596.735V297.36C596.735 289.005 596.735 270.67 579.561 270.67C570.278 270.67 561.923 278.329 557.513 286.916V355.148H523.165V196.868H557.513Z" fill="white"/>
<path d="M511.02 248.158V271.366H472.495V294.806C472.495 311.516 472.495 315.23 473.423 320.8C475.28 331.475 485.027 332.404 488.508 332.404C497.559 332.404 503.826 329.619 511.02 326.137V350.506C504.986 352.827 494.774 357.237 479.689 357.237C466.228 357.237 452.768 352.131 444.877 341.223C439.771 334.028 438.378 326.137 438.378 310.124V271.366H423.061V265.1L467.853 214.506H472.495V248.158H511.02Z" fill="white"/>
<path d="M1007.79 53.615V75.8949H992.238C994.559 79.6082 997.576 84.714 997.576 93.9973C997.576 98.8711 996.184 120.687 968.102 128.113C961.836 129.738 957.89 130.202 948.607 130.666C939.788 131.363 938.163 136.004 938.163 137.861C938.163 143.431 946.286 144.359 962.3 145.52C977.153 146.448 1003.84 152.25 1003.84 178.475C1003.84 198.202 987.597 206.325 982.027 208.646C972.744 212.591 964.389 213.984 948.839 213.984C939.556 213.984 925.863 213.752 914.491 209.806C901.03 204.933 891.051 195.649 891.051 182.885C891.051 173.834 896.156 161.997 919.829 155.963C912.402 153.643 906.6 149.465 906.6 141.806C906.6 130.434 919.365 127.417 926.327 125.793C912.634 123.472 896.388 112.1 896.388 92.3728C896.388 73.8062 908.457 63.8266 917.276 59.4171C928.648 53.615 941.412 53.615 948.375 53.615H1007.79ZM966.709 92.3728C966.709 83.3215 959.283 73.5741 946.982 73.5741C933.754 73.5741 927.952 85.1782 927.952 93.069C927.952 103.513 936.771 112.1 947.214 112.1C959.283 112.1 966.709 101.656 966.709 92.3728ZM973.904 180.564C973.904 168.728 952.088 168.728 948.375 168.728C944.197 168.728 922.15 168.728 922.15 181.724C922.15 184.974 924.47 194.025 947.911 194.025C959.747 194.025 963.692 192.4 967.638 190.079C971.583 187.759 973.904 183.581 973.904 180.564Z" fill="white"/>
<path d="M809.582 53.6155V68.9329C818.633 58.4892 828.844 51.5267 844.394 51.5267C864.121 51.5267 874.797 62.8988 879.438 72.4142C883.384 80.305 883.616 87.9637 883.616 97.4791V160.605H849.732V100.264C849.732 93.5337 849.732 88.892 848.107 84.9466C845.786 78.4483 839.752 74.9671 833.022 74.9671C819.561 74.9671 810.974 89.3562 809.582 91.677V160.605H775.93V53.6155H809.582Z" fill="white"/>
<path d="M759.105 53.611V160.601H726.846V53.611H759.105ZM743.788 0C753.767 0 762.122 7.8908 762.122 18.3345C762.122 28.7782 753.767 36.9011 743.788 36.9011C733.576 36.9011 725.221 28.7782 725.221 18.3345C725.221 7.8908 733.808 0 743.788 0Z" fill="white"/>
<path d="M656.923 53.6155V84.2504C668.295 60.3459 679.435 51.5267 691.504 51.5267C699.395 51.5267 705.893 55.4721 713.784 61.2742L704.5 90.9808C701.019 88.6599 693.36 83.0899 684.773 83.0899C672.241 83.0899 665.743 93.5337 659.708 106.53C659.244 107.691 657.388 113.493 656.923 114.421V160.605H623.271V53.6155H656.923Z" fill="white"/>
<path d="M610.063 53.6119V76.8201H571.537V100.26C571.537 116.97 571.537 120.684 572.465 126.254C574.322 136.929 584.069 137.858 587.551 137.858C596.602 137.858 602.868 135.073 610.063 131.592V155.96C604.028 158.281 593.817 162.691 578.731 162.691C565.271 162.691 551.81 157.585 543.919 146.677C538.813 139.482 537.421 131.592 537.421 115.578V76.8201H522.103V70.5539L566.895 19.96H571.537V53.6119H610.063Z" fill="white"/>
<path d="M510.557 59.4175V83.322C498.953 77.0558 487.581 72.8783 477.369 72.8783C474.352 72.8783 462.516 73.3425 462.516 80.305C462.516 84.4824 464.837 86.107 475.744 90.7487C496.864 99.1036 515.895 106.994 515.895 128.578C515.895 150.394 499.649 162.694 472.263 162.694C455.553 162.694 439.307 157.82 433.97 154.803V131.131C450.912 139.95 461.819 141.111 468.086 141.111C479.226 141.111 484.331 137.397 484.331 132.988C484.331 126.954 480.154 125.329 463.908 118.599C453 113.957 450.447 112.796 446.038 110.244C437.683 105.138 431.881 96.0866 431.881 84.7145C431.881 66.6121 447.198 51.5267 475.512 51.5267C494.775 51.5267 505.219 56.6326 510.557 59.4175Z" fill="white"/>
</svg>
