<svg width="612" height="704" viewBox="0 0 612 704" fill="none" xmlns="http://www.w3.org/2000/svg">
<path d="M611.084 499.007C604.141 453.633 585.505 414.269 557.22 385.121C517.032 343.744 458.629 322.77 383.663 322.77C320.541 322.77 273.349 306.093 243.291 273.189C215.307 242.57 207.371 203.506 205.448 178.926H378.253C386.883 178.928 395.4 176.955 403.15 173.16C410.901 169.364 417.68 163.846 422.969 157.028C428.257 150.21 431.915 142.272 433.662 133.823C435.41 125.374 435.2 116.637 433.049 108.281C429.044 92.7163 422.548 77.9014 413.812 64.4098C378.704 10.6825 316.122 -12.0645 254.082 6.23524C197.091 23.1528 158.196 69.0674 150.862 125.649H70.3355C60.021 125.636 49.8301 127.894 40.4868 132.262C31.1436 136.631 22.8773 143.002 16.2752 150.925C9.67308 158.847 4.89719 168.126 2.2868 178.101C-0.323588 188.077 -0.704417 198.505 1.17137 208.644C9.31717 252.365 28.9452 290.317 57.9515 318.173C98.5302 357.236 156.392 376.858 230.005 376.858C291.925 376.858 338.215 393.445 367.853 426.138C396.558 457.96 404.103 499.187 405.816 524.999H231.418C222.787 524.997 214.271 526.97 206.52 530.765C198.77 534.561 191.991 540.079 186.702 546.897C181.414 553.715 177.756 561.653 176.008 570.102C174.261 578.551 174.471 587.288 176.622 595.644C180.621 611.21 187.118 626.026 195.859 639.515C208.366 659.281 225.675 675.56 246.173 686.836C266.671 698.111 289.69 704.016 313.086 704C327.492 703.955 341.816 701.84 355.619 697.72C412.219 680.922 450.934 635.669 458.659 579.507H541.62C551.784 579.511 561.828 577.316 571.063 573.073C580.299 568.83 588.506 562.64 595.123 554.928C601.659 547.308 606.469 538.365 609.224 528.713C611.979 519.061 612.613 508.927 611.084 499.007ZM269.472 58.0996C300.131 49.0849 342.243 53.6223 368.454 93.9178C374.004 102.502 378.125 111.93 380.657 121.833C380.768 122.181 380.788 122.552 380.714 122.91C380.64 123.268 380.476 123.6 380.237 123.877C380.008 124.185 379.709 124.434 379.363 124.601C379.018 124.769 378.637 124.85 378.253 124.838H205.838C213.924 87.5174 243.441 65.762 269.472 58.0996ZM54.3445 198.758C53.9257 196.425 54.0255 194.027 54.6368 191.737C55.2481 189.446 56.356 187.317 57.8819 185.502C59.4079 183.687 61.3145 182.23 63.4667 181.234C65.6188 180.237 67.9638 179.727 70.3355 179.737H151.222C153.387 212.31 163.456 265.677 202.863 309.128C207.135 313.809 211.65 318.262 216.389 322.47C101.055 317.752 64.5042 253.207 54.3445 198.758ZM340.139 646.006C309.57 655.02 267.488 650.303 241.157 609.947C235.584 601.374 231.461 591.943 228.953 582.032C228.845 581.688 228.827 581.323 228.901 580.97C228.974 580.618 229.137 580.29 229.374 580.018C229.597 579.702 229.895 579.446 230.241 579.273C230.587 579.1 230.971 579.016 231.358 579.027H402.69V579.447H403.802C395.446 616.588 365.959 638.193 340.139 646.006ZM553.974 519.8C552.441 521.601 550.533 523.045 548.383 524.031C546.234 525.017 543.894 525.522 541.529 525.51H460.071C458.388 491.675 448.89 435.573 408.431 390.47C404.259 385.804 399.845 381.361 395.206 377.158C463.137 379.622 541.98 405.374 557.52 507.3C557.877 509.516 557.745 511.784 557.132 513.943C556.519 516.102 555.441 518.102 553.974 519.8Z" fill="white"/>
</svg>
