<svg width="1157" height="784" viewBox="0 0 1157 784" fill="none" xmlns="http://www.w3.org/2000/svg">
<path d="M768.745 363.251C763.691 330.221 750.125 301.566 729.535 280.348C700.28 250.228 657.766 234.96 603.195 234.96C557.245 234.96 522.892 222.82 501.011 198.867C480.64 176.578 474.863 148.142 473.463 130.249H599.256C605.539 130.25 611.738 128.814 617.38 126.051C623.022 123.288 627.957 119.271 631.807 114.308C635.657 109.345 638.319 103.567 639.591 97.416C640.863 91.2654 640.711 84.9055 639.145 78.823C636.23 67.4926 631.501 56.7081 625.141 46.887C599.584 7.77628 554.028 -8.78234 508.866 4.53893C467.38 16.854 439.066 50.2774 433.727 91.4662H375.109C367.6 91.4566 360.182 93.1002 353.38 96.2801C346.579 99.46 340.561 104.098 335.755 109.865C330.949 115.632 327.473 122.387 325.573 129.648C323.672 136.91 323.395 144.501 324.761 151.882C330.69 183.709 344.979 211.336 366.094 231.613C395.633 260.049 437.753 274.333 491.34 274.333C536.414 274.333 570.111 286.407 591.685 310.206C612.582 333.371 618.074 363.382 619.321 382.172H492.368C486.086 382.17 479.886 383.606 474.244 386.369C468.602 389.132 463.667 393.149 459.817 398.112C455.967 403.076 453.305 408.854 452.033 415.004C450.761 421.155 450.914 427.515 452.479 433.597C455.391 444.929 460.12 455.714 466.483 465.533C475.588 479.922 488.188 491.772 503.109 499.98C518.03 508.188 534.787 512.487 551.818 512.475C562.305 512.442 572.732 510.903 582.78 507.903C623.981 495.676 652.164 462.733 657.787 421.851H718.179C725.577 421.853 732.889 420.256 739.612 417.167C746.335 414.078 752.31 409.572 757.127 403.958C761.884 398.411 765.385 391.901 767.391 384.875C769.396 377.849 769.858 370.472 768.745 363.251ZM520.069 42.2934C542.388 35.7312 573.043 39.0342 592.123 68.3672C596.163 74.6164 599.163 81.4791 601.007 88.6882C601.087 88.9416 601.101 89.2114 601.048 89.4719C600.994 89.7323 600.874 89.9746 600.7 90.1756C600.534 90.4003 600.316 90.5814 600.064 90.7033C599.813 90.8252 599.535 90.8843 599.256 90.8756H473.747C479.633 63.7081 501.12 47.8713 520.069 42.2934ZM363.468 144.686C363.163 142.987 363.236 141.242 363.681 139.574C364.126 137.907 364.932 136.357 366.043 135.036C367.154 133.715 368.542 132.654 370.108 131.929C371.675 131.203 373.382 130.831 375.109 130.839H433.99C435.565 154.551 442.895 193.399 471.581 225.029C474.691 228.436 477.978 231.678 481.428 234.741C397.471 231.307 370.864 184.321 363.468 144.686ZM571.511 470.258C549.258 476.82 518.625 473.386 499.457 444.009C495.401 437.769 492.4 430.904 490.574 423.688C490.495 423.438 490.482 423.172 490.536 422.916C490.589 422.659 490.708 422.42 490.88 422.223C491.043 421.993 491.259 421.806 491.511 421.68C491.763 421.554 492.043 421.493 492.324 421.501H617.045V421.807H617.855C611.772 448.843 590.307 464.571 571.511 470.258ZM727.172 378.387C726.056 379.698 724.667 380.749 723.102 381.467C721.537 382.185 719.835 382.552 718.113 382.543H658.816C657.591 357.913 650.676 317.075 621.224 284.242C618.188 280.845 614.974 277.61 611.597 274.551C661.048 276.345 718.441 295.091 729.754 369.288C730.013 370.901 729.917 372.551 729.471 374.123C729.025 375.695 728.24 377.151 727.172 378.387Z" fill="#1A1A1A"/>
<path d="M1156.06 642.874L1092.56 783.019H1060.91L1088.65 722.194L1051.67 642.874H1083.52L1103.45 689.726L1124.82 642.874H1156.06Z" fill="#1A1A1A"/>
<path d="M996.066 642.872V669.997C1006.13 648.832 1016 641.023 1026.68 641.023C1033.67 641.023 1039.42 644.516 1046.41 649.654L1038.19 675.957C1035.11 673.902 1028.33 668.97 1020.72 668.97C1009.63 668.97 1003.87 678.217 998.532 689.725C998.121 690.752 996.477 695.889 996.066 696.711V737.604H966.27V642.872H996.066Z" fill="#1A1A1A"/>
<path d="M955.477 690.546C955.477 727.535 924.242 739.453 902.46 739.453C873.485 739.453 848.827 721.576 848.827 690.752C848.827 661.161 872.869 641.023 902.665 641.023C924.242 641.023 955.477 653.147 955.477 690.546ZM923.625 688.697C923.625 682.121 923.625 659.312 901.638 659.312C880.883 659.312 880.883 682.738 880.883 691.368C880.883 697.122 880.883 720.959 902.46 720.959C923.625 720.959 923.625 696.3 923.625 688.697Z" fill="#1A1A1A"/>
<path d="M837.447 707.808V726.918C819.981 739.248 801.075 739.453 794.294 739.453C752.374 739.453 740.25 710.685 740.25 690.341C740.25 659.928 763.881 641.023 790.39 641.023C810.117 641.023 839.708 652.736 839.091 695.067H771.074C772.307 712.329 784.02 720.959 802.514 720.959C819.57 720.959 828.2 714.589 837.447 707.808ZM771.69 679.45H812.788C811.966 671.025 806.418 659.106 792.239 659.106C777.649 659.106 772.307 671.23 771.69 679.45Z" fill="#1A1A1A"/>
<path d="M664.299 597.459V656.846C675.807 642.667 686.903 641.023 694.506 641.023C701.699 641.023 713.617 642.667 722.042 654.997C727.179 662.6 728.618 669.587 728.618 680.067V737.604H699.027V686.437C699.027 679.039 699.027 662.805 683.821 662.805C675.601 662.805 668.204 669.587 664.299 677.19V737.604H633.886V597.459H664.299Z" fill="#1A1A1A"/>
<path d="M623.135 642.873V663.423H589.024V684.177C589.024 698.973 589.024 702.26 589.846 707.192C591.49 716.645 600.12 717.467 603.203 717.467C611.217 717.467 616.765 715.001 623.135 711.919V733.495C617.792 735.55 608.751 739.454 595.394 739.454C583.475 739.454 571.557 734.934 564.57 725.275C560.049 718.905 558.816 711.919 558.816 697.74V663.423H545.254V657.874L584.914 613.077H589.024V642.873H623.135Z" fill="#1A1A1A"/>
<path d="M509.924 641.724V661.452H496.156C498.211 664.74 500.882 669.26 500.882 677.48C500.882 681.795 499.649 701.111 474.785 707.687C469.237 709.126 465.743 709.537 457.524 709.948C449.715 710.564 448.276 714.674 448.276 716.318C448.276 721.25 455.469 722.072 469.648 723.099C482.799 723.921 506.431 729.058 506.431 752.279C506.431 769.746 492.046 776.938 487.114 778.993C478.895 782.486 471.497 783.719 457.729 783.719C449.509 783.719 437.385 783.513 427.316 780.02C415.398 775.705 406.562 767.485 406.562 756.183C406.562 748.169 411.083 737.689 432.043 732.346C425.467 730.291 420.33 726.592 420.33 719.811C420.33 709.742 431.632 707.071 437.796 705.632C425.672 703.577 411.288 693.508 411.288 676.042C411.288 659.602 421.974 650.766 429.782 646.862C439.851 641.724 451.153 641.724 457.318 641.724H509.924ZM473.552 676.042C473.552 668.027 466.976 659.397 456.085 659.397C444.372 659.397 439.235 669.671 439.235 676.658C439.235 685.905 447.044 693.508 456.291 693.508C466.976 693.508 473.552 684.261 473.552 676.042ZM479.922 754.128C479.922 743.648 460.606 743.648 457.318 743.648C453.619 743.648 434.098 743.648 434.098 755.156C434.098 758.033 436.153 766.047 456.907 766.047C467.387 766.047 470.881 764.608 474.374 762.553C477.867 760.498 479.922 756.8 479.922 754.128Z" fill="#1A1A1A"/>
<path d="M334.426 641.725V655.287C342.44 646.04 351.482 639.875 365.25 639.875C382.716 639.875 392.169 649.944 396.279 658.369C399.772 665.356 399.978 672.137 399.978 680.562V736.456H369.976V683.028C369.976 677.069 369.976 672.959 368.538 669.466C366.483 663.712 361.14 660.63 355.181 660.63C343.262 660.63 335.659 673.37 334.426 675.425V736.456H304.63V641.725H334.426Z" fill="#1A1A1A"/>
<path d="M289.733 641.725V736.456H261.17V641.725H289.733ZM276.171 594.256C285.007 594.256 292.405 601.243 292.405 610.49C292.405 619.737 285.007 626.93 276.171 626.93C267.129 626.93 259.732 619.737 259.732 610.49C259.732 601.243 267.335 594.256 276.171 594.256Z" fill="#1A1A1A"/>
<path d="M199.259 641.725V668.849C209.328 647.684 219.192 639.875 229.877 639.875C236.864 639.875 242.618 643.368 249.604 648.506L241.385 674.809C238.302 672.754 231.521 667.822 223.918 667.822C212.821 667.822 207.068 677.069 201.725 688.577C201.314 689.604 199.67 694.741 199.259 695.563V736.456H169.463V641.725H199.259Z" fill="#1A1A1A"/>
<path d="M157.768 641.724V662.273H123.656V683.028C123.656 697.823 123.656 701.111 124.478 706.043C126.122 715.495 134.753 716.317 137.835 716.317C145.849 716.317 151.397 713.851 157.768 710.769V732.346C152.425 734.401 143.383 738.305 130.026 738.305C118.108 738.305 106.189 733.784 99.2026 724.126C94.6818 717.756 93.4488 710.769 93.4488 696.59V662.273H79.8864V656.725L119.546 611.928H123.656V641.724H157.768Z" fill="#1A1A1A"/>
<path d="M69.6615 646.862V668.027C59.387 662.479 49.3179 658.78 40.2763 658.78C37.6049 658.78 27.1248 659.191 27.1248 665.356C27.1248 669.055 29.1798 670.493 38.8378 674.603C57.5375 682.001 74.3878 688.988 74.3878 708.098C74.3878 727.414 60.0034 738.305 35.7555 738.305C20.9601 738.305 6.57572 733.99 1.84942 731.319V710.359C16.8503 718.167 26.5084 719.195 32.0566 719.195C41.9202 719.195 46.441 715.907 46.441 712.003C46.441 706.66 42.7422 705.221 28.3578 699.262C18.6997 695.152 16.4393 694.125 12.535 691.864C5.13728 687.344 0 679.329 0 669.26C0 653.232 13.5624 639.875 38.6324 639.875C55.6881 639.875 64.9352 644.396 69.6615 646.862Z" fill="#1A1A1A"/>
</svg>
