<svg width="1039" height="612" viewBox="0 0 1039 612" fill="none" xmlns="http://www.w3.org/2000/svg">
<path d="M1038.16 373.457L930.239 611.658H876.451L923.602 508.274L860.734 373.457H914.871L948.75 453.09L985.074 373.457H1038.16Z" fill="white"/>
<path d="M766.234 373.457V419.56C783.349 383.586 800.113 370.313 818.275 370.313C830.151 370.313 839.93 376.251 851.805 384.983L837.834 429.689C832.595 426.196 821.07 417.814 808.147 417.814C789.286 417.814 779.507 433.531 770.426 453.09C769.727 454.836 766.933 463.568 766.234 464.965V534.47H715.591V373.457H766.234Z" fill="white"/>
<path d="M697.25 454.487C697.25 517.355 644.161 537.613 607.138 537.613C557.891 537.613 515.979 507.227 515.979 454.836C515.979 404.542 556.844 370.313 607.488 370.313C644.161 370.313 697.25 390.92 697.25 454.487ZM643.113 451.344C643.113 440.167 643.113 401.398 605.741 401.398C570.465 401.398 570.465 441.215 570.465 455.884C570.465 465.664 570.465 506.179 607.138 506.179C643.113 506.179 643.113 464.267 643.113 451.344Z" fill="white"/>
<path d="M496.635 483.826V516.308C466.947 537.264 434.815 537.613 423.289 537.613C352.038 537.613 331.431 488.715 331.431 454.138C331.431 402.446 371.597 370.313 416.653 370.313C450.182 370.313 500.477 390.222 499.429 462.171H383.821C385.917 491.51 405.825 506.179 437.259 506.179C466.249 506.179 480.918 495.352 496.635 483.826ZM384.869 435.627H454.723C453.326 421.307 443.896 401.049 419.796 401.049C394.998 401.049 385.917 421.656 384.869 435.627Z" fill="white"/>
<path d="M202.34 296.27V397.208C221.899 373.109 240.76 370.314 253.683 370.314C265.907 370.314 286.165 373.109 300.485 394.065C309.216 406.988 311.661 418.863 311.661 436.675V534.471H261.367V447.503C261.367 434.929 261.367 407.337 235.521 407.337C221.55 407.337 208.976 418.863 202.34 431.786V534.471H150.649V296.27H202.34Z" fill="white"/>
<path d="M132.373 373.46V408.387H74.3944V443.663C74.3944 468.81 74.3944 474.398 75.7915 482.781C78.5856 498.847 93.2549 500.244 98.4939 500.244C112.115 500.244 121.546 496.053 132.373 490.814V527.487C123.292 530.98 107.924 537.616 85.2217 537.616C64.9641 537.616 44.7066 529.932 32.8315 513.516C25.1476 502.689 23.0519 490.814 23.0519 466.714V408.387H0.000244141V398.956L67.409 322.816H74.3944V373.46H132.373Z" fill="white"/>
<path d="M879.973 80.6846V114.214H856.572C860.065 119.803 864.606 127.487 864.606 141.457C864.606 148.792 862.51 181.623 820.249 192.8C810.818 195.245 804.881 195.943 790.91 196.642C777.638 197.689 775.193 204.675 775.193 207.469C775.193 215.851 787.417 217.248 811.517 218.995C833.87 220.392 874.036 229.124 874.036 268.591C874.036 298.279 849.587 310.503 841.205 313.996C827.234 319.933 814.66 322.029 791.259 322.029C777.289 322.029 756.682 321.68 739.568 315.742C719.31 308.408 704.292 294.437 704.292 275.227C704.292 261.606 711.975 243.793 747.601 234.712C736.424 231.219 727.692 224.932 727.692 213.407C727.692 196.292 746.902 191.752 757.38 189.307C736.773 185.814 712.325 168.7 712.325 139.012C712.325 111.071 730.487 96.0524 743.759 89.4163C760.873 80.6846 780.083 80.6846 790.561 80.6846H879.973ZM818.153 139.012C818.153 125.391 806.976 110.722 788.465 110.722C768.557 110.722 759.825 128.185 759.825 140.06C759.825 155.777 773.097 168.7 788.814 168.7C806.976 168.7 818.153 152.983 818.153 139.012ZM828.98 271.734C828.98 253.922 796.149 253.922 790.561 253.922C784.274 253.922 751.093 253.922 751.093 273.481C751.093 278.37 754.586 291.992 789.862 291.992C807.675 291.992 813.612 289.547 819.55 286.054C825.488 282.562 828.98 276.275 828.98 271.734Z" fill="white"/>
<path d="M581.686 80.683V103.735C595.308 88.0176 610.676 77.5396 634.077 77.5396C663.764 77.5396 679.831 94.6537 686.816 108.974C692.754 120.849 693.103 132.375 693.103 146.695V241.696H642.11V150.886C642.11 140.757 642.11 133.772 639.665 127.834C636.172 118.055 627.091 112.816 616.962 112.816C596.705 112.816 583.782 134.47 581.686 137.963V241.696H531.042V80.683H581.686Z" fill="white"/>
<path d="M505.724 80.681V241.694H457.175V80.681H505.724ZM482.672 0C497.69 0 510.264 11.8751 510.264 27.5922C510.264 43.3093 497.69 55.5337 482.672 55.5337C467.304 55.5337 454.73 43.3093 454.73 27.5922C454.73 11.8751 467.653 0 482.672 0Z" fill="white"/>
<path d="M351.946 80.683V126.786C369.06 90.8118 385.825 77.5396 403.987 77.5396C415.862 77.5396 425.642 83.4771 437.517 92.2088L423.546 136.915C418.307 133.422 406.781 125.04 393.858 125.04C374.998 125.04 365.218 140.757 356.137 160.316C355.439 162.063 352.644 170.794 351.946 172.191V241.696H301.302V80.683H351.946Z" fill="white"/>
<path d="M281.425 80.6815V115.608H223.447V150.884C223.447 176.032 223.447 181.62 224.844 190.002C227.638 206.069 242.307 207.466 247.546 207.466C261.167 207.466 270.598 203.275 281.425 198.036V234.709C272.344 238.202 256.976 244.838 234.274 244.838C214.016 244.838 193.759 237.154 181.884 220.738C174.2 209.911 172.104 198.036 172.104 173.936V115.608H149.052V106.178L216.461 30.0376H223.447V80.6815H281.425Z" fill="white"/>
<path d="M131.675 89.4147V125.389C114.212 115.959 97.0976 109.672 81.7298 109.672C77.1893 109.672 59.3766 110.371 59.3766 120.849C59.3766 127.136 62.8693 129.581 79.2849 136.566C111.068 149.14 139.708 161.015 139.708 193.497C139.708 226.328 115.26 244.839 74.0459 244.839C48.8986 244.839 24.4498 237.504 16.4166 232.964V197.339C41.9132 210.611 58.3288 212.357 67.7591 212.357C84.5239 212.357 92.2078 206.769 92.2078 200.133C92.2078 191.052 85.921 188.607 61.4722 178.478C45.0566 171.493 41.2147 169.746 34.5786 165.904C22.0049 158.221 13.2732 144.599 13.2732 127.485C13.2732 100.242 36.3249 77.5396 78.9356 77.5396C107.925 77.5396 123.642 85.2235 131.675 89.4147Z" fill="white"/>
</svg>
