<svg xmlns="http://www.w3.org/2000/svg" xmlns:xlink="http://www.w3.org/1999/xlink" aria-hidden="true" role="img" class="iconify iconify--logos" width="35.93" height="32" preserveAspectRatio="xMidYMid meet" viewBox="0 0 256 228"><path fill="#00D8FF" d="M210.483 61.605c-6.647-2.238-13.033-3.756-18.587-4.863c-2.455-.494-4.826-.906-7.063-1.249c-12.345-1.875-22.178-.613-27.339 3.233c-4.033 2.96-6.888 8.2-8.923 14.363c-3.403 10.334-3.65 23.207-1.565 35.43c.265 1.549.576 3.093.934 4.626c-1.793-.346-3.623-.637-5.477-.871c-12.717-1.625-25.926.39-36.876 5.274c-6.35 2.8-11.924 6.5-15.826 10.4c-3.9 3.9-6.6 9.476-9.4 15.826c-4.884 10.95-6.899 24.159-5.274 36.876c.234 1.854.525 3.684.871 5.477c-1.533-.358-3.077-.669-4.626-.934c-12.223-2.085-25.096-1.838-35.43 1.565c-6.163 2.035-11.403 4.89-14.363 8.923c-3.846 5.161-5.108 14.994-3.233 27.339c.343 2.237.755 4.608 1.249 7.063c1.107 5.554 2.625 11.94 4.863 18.587c2.238 6.647 4.906 13.489 7.855 19.967c2.266 4.94 4.682 9.6 7.156 13.78c2.96 4.033 6.2 6.888 12.363 8.923c10.334 3.403 23.207 3.65 35.43 1.565c1.549-.265 3.093-.576 4.626-.934c-.346 1.793-.637 3.623-.871 5.477c-1.625 12.717.39 25.926 5.274 36.876c2.8 6.35 6.5 11.924 10.4 15.826c3.9 3.9 9.476 6.6 15.826 9.4c10.95 4.884 24.159 6.899 36.876 5.274c1.854-.234 3.684-.525 5.477-.871c-.358 1.533-.669 3.077-.934 4.626c-2.085 12.223-1.838 25.096 1.565 35.43c2.035 6.163 4.89 11.403 8.923 14.363c5.161 3.846 14.994 5.108 27.339 3.233c2.237-.343 4.608-.755 7.063-1.249c5.554-1.107 11.94-2.625 18.587-4.863c6.647-2.238 13.489-4.906 19.967-7.855c4.94-2.266 9.6-4.682 13.78-7.156c4.033-2.96 6.888-6.2 8.923-12.363c3.403-10.334 3.65-23.207 1.565-35.43c-.265-1.549-.576-3.093-.934-4.626c1.793.346 3.623.637 5.477.871c12.717 1.625 25.926-.39 36.876-5.274c6.35-2.8 11.924-6.5 15.826-10.4c3.9-3.9 6.6-9.476 9.4-15.826c4.884-10.95 6.899-24.159 5.274-36.876c-.234-1.854-.525-3.684-.871-5.477c1.533.358 3.077.669 4.626.934c12.223 2.085 25.096 1.838 35.43-1.565c6.163-2.035 11.403-4.89 14.363-8.923c3.846-5.161 5.108-14.994 3.233-27.339c-.343-2.237-.755-4.608-1.249-7.063c-1.107-5.554-2.625-11.94-4.863-18.587c-2.238-6.647-4.906-13.489-7.855-19.967c-2.266-4.94-4.682-9.6-7.156-13.78c-2.96-4.033-6.2-6.888-12.363-8.923c-10.334-3.403-23.207-3.65-35.43-1.565c-1.549.265-3.093.576-4.626.934c.346-1.793.637-3.623.871-5.477c1.625-12.717-.39-25.926-5.274-36.876c-2.8-6.35-6.5-11.924-10.4-15.826c-3.9-3.9-9.476-6.6-15.826-9.4c-10.95-4.884-24.159-6.899-36.876-5.274c-1.854.234-3.684.525-5.477.871c.358-1.533.669-3.077.934-4.626c2.085-12.223 1.838-25.096-1.565-35.43c-2.035-6.163-4.89-11.403-8.923-14.363c-5.161-3.846-14.994-5.108-27.339-3.233c-2.237.343-4.608.755-7.063 1.249c-5.554 1.107-11.94 2.625-18.587 4.863c-6.647 2.238-13.489 4.906-19.967 7.855c-4.94 2.266-9.6 4.682-13.78 7.156c-4.033 2.96-6.888 6.2-8.923 12.363c-3.403 10.334-3.65 23.207-1.565 35.43c.265 1.549.576 3.093.934 4.626c-1.793-.346-3.623-.637-5.477-.871c-12.717-1.625-25.926.39-36.876 5.274c-6.35 2.8-11.924 6.5-15.826 10.4c-3.9 3.9-6.6 9.476-9.4 15.826c-4.884 10.95-6.899 24.159-5.274 36.876c.234 1.854.525 3.684.871 5.477c-1.533-.358-3.077-.669-4.626-.934c-12.223-2.085-25.096-1.838-35.43 1.565c-6.163 2.035-11.403 4.89-14.363 8.923c-3.846 5.161-5.108 14.994-3.233 27.339c.343 2.237.755 4.608 1.249 7.063c1.107 5.554 2.625 11.94 4.863 18.587c2.238 6.647 4.906 13.489 7.855 19.967c2.266 4.94 4.682 9.6 7.156 13.78c2.96 4.033 6.2 6.888 12.363 8.923c10.334 3.403 23.207 3.65 35.43 1.565c1.549-.265 3.093-.576 4.626-.934c-.346 1.793-.637 3.623-.871 5.477c-1.625 12.717.39 25.926 5.274 36.876c2.8 6.35 6.5 11.924 10.4 15.826c3.9 3.9 9.476 6.6 15.826 9.4c10.95 4.884 24.159 6.899 36.876 5.274c1.854-.234 3.684-.525 5.477-.871c-.358 1.533-.669 3.077-.934 4.626c-2.085 12.223-1.838 25.096 1.565 35.43c2.035 6.163 4.89 11.403 8.923 14.363c5.161 3.846 14.994 5.108 27.339 3.233c2.237-.343 4.608-.755 7.063-1.249c5.554-1.107 11.94-2.625 18.587-4.863c6.647-2.238 13.489-4.906 19.967-7.855c4.94-2.266 9.6-4.682 13.78-7.156c4.033-2.96 6.888-6.2 8.923-12.363c3.403-10.334 3.65-23.207 1.565-35.43c-.265-1.549-.576-3.093-.934-4.626c1.793.346 3.623.637 5.477.871c12.717 1.625 25.926-.39 36.876-5.274c6.35-2.8 11.924-6.5 15.826-10.4c3.9-3.9 6.6-9.476 9.4-15.826c4.884-10.95 6.899-24.159 5.274-36.876c-.234-1.854-.525-3.684-.871-5.477c1.533.358 3.077.669 4.626.934c12.223 2.085 25.096 1.838 35.43-1.565c6.163-2.035 11.403-4.89 14.363-8.923c3.846-5.161 5.108-14.994 3.233-27.339c-.343-2.237-.755-4.608-1.249-7.063c-1.107-5.554-2.625-11.94-4.863-18.587c-2.238-6.647-4.906-13.489-7.855-19.967c-2.266-4.94-4.682-9.6-7.156-13.78c-2.96-4.033-6.2-6.888-12.363-8.923c-10.334-3.403-23.207-3.65-35.43-1.565c-1.549.265-3.093.576-4.626.934c.346-1.793.637-3.623.871-5.477c1.625-12.717-.39-25.926-5.274-36.876c-2.8-6.35-6.5-11.924-10.4-15.826c-3.9-3.9-9.476-6.6-15.826-9.4c-10.95-4.884-24.159-6.899-36.876-5.274c-1.854.234-3.684.525-5.477.871c.358-1.533.669-3.077.934-4.626c2.085-12.223 1.838-25.096-1.565-35.43c-2.035-6.163-4.89-11.403-8.923-14.363c-5.161-3.846-14.994-5.108-27.339-3.233c-2.237.343-4.608.755-7.063 1.249c-5.554 1.107-11.94 2.625-18.587 4.863Z"></path></svg>
